<svg width="34" height="34" viewBox="0 0 34 34" fill="none" xmlns="http://www.w3.org/2000/svg">
<g filter="url(#filter0_d_15_1479)">
<circle cx="17" cy="13" r="13" fill="#212121"/>
</g>
<path d="M22.25 12.25H20.975C20.975 12.805 20.855 13.3225 20.6525 13.7875L21.575 14.71C21.995 13.975 22.25 13.1425 22.25 12.25ZM19.235 12.3775C19.235 12.3325 19.25 12.295 19.25 12.25V7.75C19.25 6.505 18.245 5.5 17 5.5C15.755 5.5 14.75 6.505 14.75 7.75V7.885L19.235 12.3775ZM11.2025 6.25L10.25 7.2025L14.7575 11.71V12.25C14.7575 13.495 15.755 14.5 17 14.5C17.165 14.5 17.33 14.4775 17.4875 14.44L18.7325 15.685C18.2 15.9325 17.6075 16.075 17 16.075C14.93 16.075 13.025 14.5 13.025 12.25H11.75C11.75 14.8075 13.79 16.9225 16.25 17.29V19.75H17.75V17.29C18.4325 17.1925 19.0775 16.9525 19.655 16.615L22.7975 19.75L23.75 18.7975L11.2025 6.25Z" fill="white"/>
<rect x="11.2129" y="6.28218" width="17.706" height="1.3526" transform="rotate(44.9525 11.2129 6.28218)" fill="#F44336"/>
<defs>
<filter id="filter0_d_15_1479" x="0" y="0" width="34" height="34" filterUnits="userSpaceOnUse" color-interpolation-filters="sRGB">
<feFlood flood-opacity="0" result="BackgroundImageFix"/>
<feColorMatrix in="SourceAlpha" type="matrix" values="0 0 0 0 0 0 0 0 0 0 0 0 0 0 0 0 0 0 127 0" result="hardAlpha"/>
<feOffset dy="4"/>
<feGaussianBlur stdDeviation="2"/>
<feColorMatrix type="matrix" values="0 0 0 0 0 0 0 0 0 0 0 0 0 0 0 0 0 0 0.25 0"/>
<feBlend mode="normal" in2="BackgroundImageFix" result="effect1_dropShadow_15_1479"/>
<feBlend mode="normal" in="SourceGraphic" in2="effect1_dropShadow_15_1479" result="shape"/>
</filter>
</defs>
</svg>
